<svg xmlns="http://www.w3.org/2000/svg" viewBox="0 0 800 600" preserveAspectRatio="xMidYMid slice">
<defs><filter id="b" x="-20%" y="-20%" width="140%" height="140%"><feGaussianBlur stdDeviation="5"/></filter>
<linearGradient id="fade" x1="0" y1="0" x2="0" y2="1"><stop offset="0" stop-color="#080C13" stop-opacity="1"/><stop offset="0.42" stop-color="#080C13" stop-opacity="0.08"/><stop offset="1" stop-color="#080C13" stop-opacity="0.8"/></linearGradient></defs>
<rect width="800" height="600" fill="#0C1622"/>
<g filter="url(#b)">
<ellipse cx="104.1" cy="346.3" rx="3.3" ry="3.2" fill="#4E86A6" opacity="0.46"/>
<ellipse cx="267.0" cy="117.4" rx="3.1" ry="3.7" fill="#3E9E96" opacity="0.88"/>
<ellipse cx="632.0" cy="240.1" rx="2.4" ry="2.9" fill="#33607E" opacity="0.56"/>
<ellipse cx="410.8" cy="272.4" rx="2.9" ry="3.7" fill="#4E86A6" opacity="0.84"/>
<ellipse cx="273.1" cy="191.9" rx="4.7" ry="5.9" fill="#4E86A6" opacity="0.49"/>
<ellipse cx="700.5" cy="422.3" rx="5.0" ry="6.2" fill="#3E6E8C" opacity="0.85"/>
<ellipse cx="272.3" cy="241.9" rx="1.9" ry="2.6" fill="#4F93AE" opacity="0.66"/>
<ellipse cx="758.6" cy="137.7" rx="4.8" ry="4.6" fill="#3E9E96" opacity="0.87"/>
<ellipse cx="615.2" cy="117.5" rx="1.8" ry="2.0" fill="#5C97B8" opacity="0.62"/>
<ellipse cx="43.2" cy="250.5" rx="3.8" ry="4.2" fill="#2B5570" opacity="0.74"/>
<ellipse cx="377.0" cy="392.8" rx="4.2" ry="3.5" fill="#3E9E96" opacity="0.59"/>
<ellipse cx="51.5" cy="112.9" rx="5.0" ry="4.3" fill="#3E9E96" opacity="0.67"/>
<ellipse cx="378.3" cy="225.6" rx="5.0" ry="6.2" fill="#7FB6CE" opacity="0.66"/>
<ellipse cx="619.5" cy="163.7" rx="3.6" ry="4.7" fill="#4F93AE" opacity="0.61"/>
<ellipse cx="563.6" cy="285.3" rx="3.2" ry="3.9" fill="#7FB6CE" opacity="0.66"/>
<ellipse cx="142.2" cy="121.5" rx="2.1" ry="2.3" fill="#5C97B8" opacity="0.69"/>
<ellipse cx="731.3" cy="353.8" rx="4.9" ry="6.4" fill="#22415A" opacity="0.77"/>
<ellipse cx="628.8" cy="140.6" rx="4.3" ry="4.3" fill="#2B5570" opacity="0.50"/>
<ellipse cx="195.6" cy="193.0" rx="1.8" ry="1.5" fill="#4E86A6" opacity="0.57"/>
<ellipse cx="724.6" cy="239.4" rx="2.7" ry="2.2" fill="#3E6E8C" opacity="0.89"/>
<ellipse cx="258.3" cy="193.9" rx="2.3" ry="2.4" fill="#22415A" opacity="0.62"/>
<ellipse cx="418.6" cy="185.5" rx="4.2" ry="4.5" fill="#22415A" opacity="0.81"/>
<ellipse cx="405.9" cy="259.8" rx="3.4" ry="3.5" fill="#33607E" opacity="0.72"/>
<ellipse cx="676.6" cy="113.5" rx="3.5" ry="4.5" fill="#22415A" opacity="0.71"/>
<ellipse cx="172.0" cy="463.0" rx="1.9" ry="1.6" fill="#22415A" opacity="0.75"/>
<ellipse cx="289.8" cy="268.8" rx="2.6" ry="3.0" fill="#2B5570" opacity="0.46"/>
<ellipse cx="480.7" cy="132.6" rx="4.7" ry="6.1" fill="#6AA8C4" opacity="0.77"/>
<ellipse cx="88.6" cy="288.2" rx="3.0" ry="4.0" fill="#5C97B8" opacity="0.86"/>
<ellipse cx="239.3" cy="268.8" rx="3.8" ry="3.6" fill="#2B5570" opacity="0.93"/>
<ellipse cx="170.1" cy="435.7" rx="2.4" ry="3.1" fill="#3E6E8C" opacity="0.72"/>
<ellipse cx="452.9" cy="112.3" rx="2.0" ry="2.4" fill="#7FB6CE" opacity="0.53"/>
<ellipse cx="39.5" cy="352.3" rx="3.6" ry="4.7" fill="#33607E" opacity="0.68"/>
<ellipse cx="80.0" cy="117.1" rx="3.8" ry="5.3" fill="#22415A" opacity="0.92"/>
<ellipse cx="255.3" cy="472.3" rx="3.9" ry="5.4" fill="#7FB6CE" opacity="0.93"/>
<ellipse cx="92.2" cy="257.3" rx="2.4" ry="3.1" fill="#33607E" opacity="0.76"/>
<ellipse cx="232.6" cy="111.3" rx="2.0" ry="2.7" fill="#22415A" opacity="0.95"/>
<ellipse cx="756.5" cy="395.7" rx="2.7" ry="3.0" fill="#3E9E96" opacity="0.87"/>
<ellipse cx="245.1" cy="154.7" rx="4.3" ry="3.8" fill="#33607E" opacity="0.79"/>
<ellipse cx="783.9" cy="433.0" rx="2.9" ry="3.3" fill="#3E6E8C" opacity="0.57"/>
<ellipse cx="554.5" cy="278.1" rx="2.3" ry="3.1" fill="#22415A" opacity="0.89"/>
<ellipse cx="376.2" cy="324.8" rx="3.4" ry="3.4" fill="#3E6E8C" opacity="0.72"/>
<ellipse cx="364.4" cy="147.9" rx="3.1" ry="2.6" fill="#4E86A6" opacity="0.89"/>
<ellipse cx="477.5" cy="149.7" rx="2.4" ry="3.2" fill="#3E9E96" opacity="0.56"/>
<ellipse cx="393.9" cy="149.2" rx="3.6" ry="4.8" fill="#4E86A6" opacity="0.90"/>
<ellipse cx="794.3" cy="463.1" rx="5.1" ry="4.8" fill="#3E9E96" opacity="0.74"/>
<ellipse cx="641.8" cy="297.2" rx="3.9" ry="4.7" fill="#2B5570" opacity="0.64"/>
<ellipse cx="322.8" cy="463.0" rx="2.5" ry="2.5" fill="#22415A" opacity="0.67"/>
<ellipse cx="122.7" cy="467.6" rx="3.5" ry="4.5" fill="#7FB6CE" opacity="0.88"/>
<ellipse cx="250.5" cy="229.1" rx="3.0" ry="3.5" fill="#7FB6CE" opacity="0.52"/>
<ellipse cx="444.7" cy="343.8" rx="2.7" ry="3.3" fill="#2B5570" opacity="0.68"/>
<ellipse cx="86.9" cy="123.4" rx="2.2" ry="2.5" fill="#2B5570" opacity="0.60"/>
<ellipse cx="452.9" cy="201.6" rx="4.4" ry="5.6" fill="#3E9E96" opacity="0.87"/>
<ellipse cx="171.5" cy="335.1" rx="2.8" ry="3.3" fill="#2B5570" opacity="0.82"/>
<ellipse cx="509.1" cy="128.8" rx="1.7" ry="2.3" fill="#4F93AE" opacity="0.59"/>
<ellipse cx="317.2" cy="213.1" rx="3.0" ry="2.4" fill="#4F93AE" opacity="0.81"/>
<ellipse cx="349.9" cy="485.3" rx="4.9" ry="4.9" fill="#3E9E96" opacity="0.60"/>
<ellipse cx="87.0" cy="379.6" rx="3.6" ry="4.9" fill="#3E9E96" opacity="0.72"/>
<ellipse cx="385.9" cy="286.7" rx="4.0" ry="3.5" fill="#33607E" opacity="0.92"/>
<ellipse cx="543.7" cy="149.8" rx="2.1" ry="2.4" fill="#4F93AE" opacity="0.74"/>
<ellipse cx="701.6" cy="197.4" rx="3.1" ry="4.0" fill="#3E6E8C" opacity="0.72"/>
<ellipse cx="356.7" cy="129.4" rx="1.9" ry="2.5" fill="#33607E" opacity="0.90"/>
<ellipse cx="73.2" cy="111.7" rx="4.1" ry="3.4" fill="#33607E" opacity="0.86"/>
<ellipse cx="747.5" cy="354.2" rx="4.0" ry="5.2" fill="#22415A" opacity="0.88"/>
<ellipse cx="680.6" cy="285.0" rx="3.5" ry="4.9" fill="#33607E" opacity="0.66"/>
<ellipse cx="640.1" cy="157.5" rx="3.6" ry="4.5" fill="#6AA8C4" opacity="0.46"/>
<ellipse cx="37.8" cy="327.8" rx="1.8" ry="2.1" fill="#6AA8C4" opacity="0.67"/>
<ellipse cx="45.5" cy="504.0" rx="4.6" ry="5.2" fill="#6AA8C4" opacity="0.64"/>
<ellipse cx="84.8" cy="371.4" rx="2.8" ry="2.8" fill="#6AA8C4" opacity="0.67"/>
<ellipse cx="709.6" cy="230.5" rx="3.2" ry="3.1" fill="#4E86A6" opacity="0.73"/>
<ellipse cx="646.0" cy="179.6" rx="4.5" ry="4.8" fill="#4E86A6" opacity="0.66"/>
<ellipse cx="683.1" cy="144.5" rx="4.1" ry="4.7" fill="#3E9E96" opacity="0.75"/>
<ellipse cx="32.3" cy="160.9" rx="4.9" ry="5.5" fill="#4E86A6" opacity="0.92"/>
<ellipse cx="32.9" cy="493.8" rx="3.4" ry="4.3" fill="#2B5570" opacity="0.46"/>
<ellipse cx="624.4" cy="132.2" rx="3.1" ry="2.8" fill="#2B5570" opacity="0.80"/>
<ellipse cx="360.8" cy="137.1" rx="4.5" ry="3.6" fill="#33607E" opacity="0.88"/>
<ellipse cx="495.8" cy="125.8" rx="3.9" ry="5.0" fill="#6AA8C4" opacity="0.87"/>
<ellipse cx="318.2" cy="123.0" rx="3.1" ry="3.2" fill="#2B5570" opacity="0.93"/>
<ellipse cx="579.0" cy="231.7" rx="3.0" ry="3.1" fill="#5C97B8" opacity="0.92"/>
<ellipse cx="718.0" cy="116.6" rx="4.0" ry="4.2" fill="#2B5570" opacity="0.88"/>
<ellipse cx="235.5" cy="211.3" rx="3.4" ry="3.3" fill="#5C97B8" opacity="0.67"/>
<ellipse cx="513.7" cy="460.9" rx="2.3" ry="2.8" fill="#4E86A6" opacity="0.60"/>
<ellipse cx="777.5" cy="144.6" rx="3.3" ry="2.8" fill="#4E86A6" opacity="0.50"/>
<ellipse cx="215.8" cy="305.7" rx="4.2" ry="5.7" fill="#22415A" opacity="0.85"/>
<ellipse cx="440.1" cy="238.1" rx="3.1" ry="3.8" fill="#7FB6CE" opacity="0.78"/>
<ellipse cx="449.2" cy="112.9" rx="2.8" ry="3.3" fill="#2B5570" opacity="0.67"/>
<ellipse cx="49.2" cy="177.6" rx="4.9" ry="6.8" fill="#5C97B8" opacity="0.50"/>
<ellipse cx="435.5" cy="112.9" rx="4.0" ry="3.8" fill="#3E6E8C" opacity="0.68"/>
<ellipse cx="658.2" cy="110.4" rx="4.5" ry="6.2" fill="#5C97B8" opacity="0.52"/>
<ellipse cx="294.6" cy="484.9" rx="4.4" ry="4.6" fill="#3E9E96" opacity="0.65"/>
<ellipse cx="3.5" cy="300.8" rx="3.7" ry="5.0" fill="#6AA8C4" opacity="0.52"/>
<ellipse cx="121.4" cy="198.2" rx="4.3" ry="4.3" fill="#3E6E8C" opacity="0.88"/>
<ellipse cx="707.2" cy="225.6" rx="5.0" ry="4.0" fill="#4F93AE" opacity="0.47"/>
<ellipse cx="257.2" cy="152.0" rx="4.0" ry="3.5" fill="#4F93AE" opacity="0.51"/>
<ellipse cx="798.3" cy="150.8" rx="4.8" ry="4.2" fill="#2B5570" opacity="0.50"/>
<ellipse cx="34.4" cy="174.7" rx="4.3" ry="5.7" fill="#3E6E8C" opacity="0.63"/>
<ellipse cx="404.3" cy="239.5" rx="2.6" ry="2.6" fill="#7FB6CE" opacity="0.81"/>
<ellipse cx="647.9" cy="153.6" rx="3.7" ry="4.5" fill="#33607E" opacity="0.84"/>
<ellipse cx="672.9" cy="391.7" rx="4.9" ry="4.6" fill="#3E9E96" opacity="0.53"/>
<ellipse cx="86.7" cy="239.8" rx="1.8" ry="1.7" fill="#3E6E8C" opacity="0.94"/>
<ellipse cx="534.8" cy="282.6" rx="2.0" ry="1.8" fill="#7FB6CE" opacity="0.62"/>
<ellipse cx="511.0" cy="160.8" rx="4.0" ry="4.3" fill="#4E86A6" opacity="0.64"/>
<ellipse cx="76.7" cy="209.5" rx="3.5" ry="3.5" fill="#6AA8C4" opacity="0.66"/>
<ellipse cx="331.6" cy="206.4" rx="1.8" ry="1.6" fill="#2B5570" opacity="0.51"/>
<ellipse cx="257.6" cy="118.5" rx="1.8" ry="1.9" fill="#22415A" opacity="0.88"/>
<ellipse cx="777.2" cy="394.0" rx="2.6" ry="2.9" fill="#6AA8C4" opacity="0.88"/>
<ellipse cx="102.6" cy="294.8" rx="4.4" ry="5.7" fill="#4E86A6" opacity="0.58"/>
<ellipse cx="36.8" cy="172.3" rx="2.8" ry="2.4" fill="#33607E" opacity="0.86"/>
<ellipse cx="607.3" cy="273.8" rx="3.5" ry="3.8" fill="#33607E" opacity="0.86"/>
<ellipse cx="691.1" cy="171.1" rx="3.9" ry="4.1" fill="#6AA8C4" opacity="0.57"/>
<ellipse cx="543.6" cy="111.4" rx="4.8" ry="4.8" fill="#3E6E8C" opacity="0.58"/>
<ellipse cx="328.6" cy="131.4" rx="2.2" ry="2.1" fill="#4F93AE" opacity="0.46"/>
<ellipse cx="140.2" cy="279.0" rx="1.9" ry="1.9" fill="#4E86A6" opacity="0.52"/>
<ellipse cx="688.9" cy="337.7" rx="2.7" ry="3.4" fill="#22415A" opacity="0.73"/>
<ellipse cx="710.8" cy="230.2" rx="4.3" ry="4.4" fill="#6AA8C4" opacity="0.53"/>
<ellipse cx="456.8" cy="127.3" rx="4.5" ry="4.2" fill="#3E9E96" opacity="0.53"/>
<ellipse cx="620.6" cy="321.0" rx="4.8" ry="4.2" fill="#22415A" opacity="0.62"/>
<ellipse cx="240.6" cy="298.0" rx="3.2" ry="4.1" fill="#5C97B8" opacity="0.49"/>
<ellipse cx="195.7" cy="513.4" rx="3.1" ry="3.2" fill="#5C97B8" opacity="0.76"/>
<ellipse cx="88.2" cy="318.9" rx="3.0" ry="3.3" fill="#7FB6CE" opacity="0.58"/>
<ellipse cx="7.9" cy="151.7" rx="5.0" ry="6.9" fill="#4E86A6" opacity="0.62"/>
<ellipse cx="457.4" cy="228.1" rx="5.0" ry="5.8" fill="#3E6E8C" opacity="0.46"/>
<ellipse cx="500.9" cy="314.8" rx="2.8" ry="3.7" fill="#3E9E96" opacity="0.86"/>
<ellipse cx="440.2" cy="266.5" rx="3.1" ry="3.2" fill="#3E9E96" opacity="0.87"/>
<ellipse cx="73.8" cy="187.2" rx="3.5" ry="4.2" fill="#22415A" opacity="0.54"/>
<ellipse cx="365.3" cy="119.6" rx="4.7" ry="5.9" fill="#6AA8C4" opacity="0.87"/>
<ellipse cx="117.8" cy="170.9" rx="2.5" ry="2.3" fill="#6AA8C4" opacity="0.82"/>
<ellipse cx="743.7" cy="281.5" rx="4.6" ry="6.3" fill="#4F93AE" opacity="0.67"/>
<ellipse cx="371.0" cy="197.0" rx="2.0" ry="1.9" fill="#4F93AE" opacity="0.53"/>
<ellipse cx="30.8" cy="402.4" rx="2.8" ry="3.6" fill="#4F93AE" opacity="0.81"/>
<ellipse cx="258.1" cy="243.0" rx="3.5" ry="3.4" fill="#2B5570" opacity="0.66"/>
<ellipse cx="719.2" cy="140.0" rx="4.7" ry="5.7" fill="#6AA8C4" opacity="0.81"/>
<ellipse cx="361.8" cy="123.9" rx="1.7" ry="1.8" fill="#4F93AE" opacity="0.91"/>
<ellipse cx="663.7" cy="470.2" rx="4.6" ry="4.9" fill="#6AA8C4" opacity="0.94"/>
<ellipse cx="18.2" cy="187.0" rx="5.0" ry="4.1" fill="#4E86A6" opacity="0.65"/>
<ellipse cx="33.6" cy="119.1" rx="3.9" ry="4.0" fill="#4E86A6" opacity="0.75"/>
<ellipse cx="258.9" cy="413.5" rx="3.9" ry="4.7" fill="#4F93AE" opacity="0.47"/>
<ellipse cx="336.1" cy="115.5" rx="2.9" ry="3.3" fill="#22415A" opacity="0.81"/>
<ellipse cx="276.5" cy="263.2" rx="2.6" ry="2.7" fill="#3E6E8C" opacity="0.87"/>
<ellipse cx="119.3" cy="369.8" rx="3.6" ry="3.0" fill="#3E9E96" opacity="0.78"/>
<ellipse cx="453.7" cy="192.7" rx="2.7" ry="2.5" fill="#2B5570" opacity="0.82"/>
<ellipse cx="312.4" cy="172.7" rx="3.9" ry="4.6" fill="#22415A" opacity="0.72"/>
<ellipse cx="611.9" cy="371.3" rx="4.2" ry="4.1" fill="#3E6E8C" opacity="0.49"/>
<ellipse cx="688.7" cy="283.6" rx="5.0" ry="4.2" fill="#33607E" opacity="0.77"/>
<ellipse cx="148.6" cy="164.8" rx="4.0" ry="3.8" fill="#4F93AE" opacity="0.50"/>
<ellipse cx="530.4" cy="235.8" rx="3.3" ry="3.5" fill="#7FB6CE" opacity="0.72"/>
<ellipse cx="61.1" cy="187.7" rx="3.0" ry="4.0" fill="#5C97B8" opacity="0.64"/>
<ellipse cx="464.9" cy="112.6" rx="4.5" ry="4.9" fill="#4E86A6" opacity="0.53"/>
<ellipse cx="508.7" cy="202.5" rx="3.7" ry="4.4" fill="#5C97B8" opacity="0.75"/>
<ellipse cx="792.0" cy="334.8" rx="3.2" ry="3.0" fill="#3E6E8C" opacity="0.87"/>
<ellipse cx="430.8" cy="251.6" rx="4.2" ry="3.9" fill="#4F93AE" opacity="0.58"/>
<ellipse cx="535.3" cy="362.4" rx="4.3" ry="4.9" fill="#4F93AE" opacity="0.66"/>
<ellipse cx="735.6" cy="116.3" rx="4.6" ry="6.2" fill="#5C97B8" opacity="0.56"/>
<ellipse cx="390.3" cy="112.5" rx="4.5" ry="6.3" fill="#4E86A6" opacity="0.52"/>
<ellipse cx="291.0" cy="247.6" rx="4.7" ry="6.2" fill="#4F93AE" opacity="0.84"/>
<ellipse cx="487.6" cy="213.1" rx="4.8" ry="6.4" fill="#5C97B8" opacity="0.47"/>
<ellipse cx="477.8" cy="246.3" rx="3.3" ry="4.5" fill="#3E9E96" opacity="0.80"/>
<ellipse cx="246.2" cy="433.8" rx="3.4" ry="3.9" fill="#3E6E8C" opacity="0.67"/>
<ellipse cx="194.6" cy="124.1" rx="4.7" ry="4.0" fill="#3E6E8C" opacity="0.49"/>
<ellipse cx="245.3" cy="282.4" rx="3.2" ry="2.6" fill="#5C97B8" opacity="0.83"/>
<ellipse cx="314.7" cy="114.9" rx="4.6" ry="4.0" fill="#4E86A6" opacity="0.55"/>
<ellipse cx="742.1" cy="128.5" rx="3.3" ry="3.8" fill="#2B5570" opacity="0.50"/>
<ellipse cx="518.0" cy="267.8" rx="2.8" ry="3.2" fill="#33607E" opacity="0.58"/>
<ellipse cx="155.1" cy="263.6" rx="3.9" ry="4.8" fill="#22415A" opacity="0.66"/>
<ellipse cx="796.5" cy="511.5" rx="4.4" ry="5.2" fill="#4F93AE" opacity="0.83"/>
<ellipse cx="545.6" cy="205.1" rx="4.2" ry="3.8" fill="#3E9E96" opacity="0.83"/>
<ellipse cx="578.0" cy="375.4" rx="2.3" ry="2.8" fill="#22415A" opacity="0.83"/>
<ellipse cx="773.1" cy="182.0" rx="2.4" ry="1.9" fill="#3E9E96" opacity="0.56"/>
<ellipse cx="408.8" cy="494.9" rx="2.4" ry="2.1" fill="#5C97B8" opacity="0.48"/>
<ellipse cx="149.5" cy="350.7" rx="3.5" ry="4.6" fill="#4E86A6" opacity="0.69"/>
<ellipse cx="262.8" cy="190.0" rx="1.9" ry="1.6" fill="#33607E" opacity="0.74"/>
<ellipse cx="10.6" cy="189.0" rx="3.4" ry="3.5" fill="#4E86A6" opacity="0.53"/>
<ellipse cx="106.3" cy="200.7" rx="3.5" ry="3.3" fill="#3E9E96" opacity="0.64"/>
<ellipse cx="0.7" cy="313.0" rx="1.8" ry="2.2" fill="#4F93AE" opacity="0.89"/>
<ellipse cx="164.3" cy="195.4" rx="2.4" ry="2.6" fill="#2B5570" opacity="0.86"/>
<ellipse cx="755.2" cy="257.6" rx="4.0" ry="5.3" fill="#22415A" opacity="0.83"/>
<ellipse cx="441.5" cy="466.6" rx="2.6" ry="2.1" fill="#4F93AE" opacity="0.85"/>
<ellipse cx="178.9" cy="342.3" rx="3.4" ry="4.1" fill="#33607E" opacity="0.57"/>
<ellipse cx="280.7" cy="131.3" rx="3.4" ry="3.6" fill="#3E6E8C" opacity="0.71"/>
<ellipse cx="560.5" cy="122.0" rx="3.5" ry="3.4" fill="#4F93AE" opacity="0.73"/>
<ellipse cx="666.2" cy="139.8" rx="4.8" ry="4.6" fill="#5C97B8" opacity="0.55"/>
<ellipse cx="683.2" cy="347.0" rx="4.9" ry="5.6" fill="#2B5570" opacity="0.57"/>
<ellipse cx="264.9" cy="120.1" rx="3.3" ry="3.1" fill="#22415A" opacity="0.57"/>
<ellipse cx="180.3" cy="249.6" rx="2.9" ry="3.3" fill="#7FB6CE" opacity="0.50"/>
<ellipse cx="527.4" cy="196.6" rx="3.4" ry="3.6" fill="#6AA8C4" opacity="0.64"/>
<ellipse cx="378.8" cy="110.7" rx="2.9" ry="4.1" fill="#5C97B8" opacity="0.74"/>
<ellipse cx="358.7" cy="147.2" rx="2.2" ry="2.1" fill="#4E86A6" opacity="0.92"/>
<ellipse cx="301.2" cy="184.9" rx="1.8" ry="1.6" fill="#7FB6CE" opacity="0.65"/>
<ellipse cx="223.0" cy="214.2" rx="3.3" ry="3.9" fill="#3E6E8C" opacity="0.72"/>
<ellipse cx="341.5" cy="156.3" rx="4.8" ry="5.0" fill="#4E86A6" opacity="0.54"/>
<ellipse cx="427.2" cy="224.5" rx="2.2" ry="2.8" fill="#3E9E96" opacity="0.70"/>
<ellipse cx="572.9" cy="337.7" rx="4.6" ry="4.6" fill="#22415A" opacity="0.65"/>
<ellipse cx="550.9" cy="196.5" rx="4.8" ry="6.6" fill="#33607E" opacity="0.68"/>
<ellipse cx="697.3" cy="218.1" rx="3.0" ry="3.5" fill="#33607E" opacity="0.55"/>
<ellipse cx="364.8" cy="336.6" rx="2.5" ry="2.2" fill="#3E9E96" opacity="0.87"/>
<ellipse cx="797.9" cy="166.0" rx="2.9" ry="3.8" fill="#3E6E8C" opacity="0.75"/>
<ellipse cx="425.2" cy="533.5" rx="3.7" ry="5.1" fill="#7FB6CE" opacity="0.89"/>
<ellipse cx="154.4" cy="124.3" rx="4.6" ry="4.2" fill="#2B5570" opacity="0.82"/>
<ellipse cx="410.9" cy="221.1" rx="4.2" ry="4.6" fill="#3E6E8C" opacity="0.78"/>
<ellipse cx="786.6" cy="165.5" rx="4.5" ry="4.2" fill="#4E86A6" opacity="0.70"/>
<ellipse cx="266.7" cy="181.8" rx="1.8" ry="2.1" fill="#4F93AE" opacity="0.48"/>
<ellipse cx="220.7" cy="138.4" rx="3.8" ry="4.6" fill="#5C97B8" opacity="0.91"/>
<ellipse cx="77.8" cy="318.6" rx="4.0" ry="4.6" fill="#3E6E8C" opacity="0.94"/>
<ellipse cx="472.7" cy="201.5" rx="3.0" ry="3.4" fill="#7FB6CE" opacity="0.64"/>
<ellipse cx="613.4" cy="217.0" rx="3.5" ry="3.4" fill="#33607E" opacity="0.54"/>
<ellipse cx="467.1" cy="139.3" rx="3.0" ry="3.2" fill="#22415A" opacity="0.59"/>
<ellipse cx="580.0" cy="124.1" rx="4.6" ry="4.9" fill="#3E6E8C" opacity="0.77"/>
<ellipse cx="704.9" cy="362.2" rx="2.0" ry="1.9" fill="#7FB6CE" opacity="0.89"/>
<ellipse cx="587.3" cy="176.3" rx="3.0" ry="3.7" fill="#4E86A6" opacity="0.88"/>
<ellipse cx="32.2" cy="111.3" rx="4.6" ry="5.5" fill="#5C97B8" opacity="0.95"/>
<ellipse cx="388.5" cy="123.6" rx="2.8" ry="3.6" fill="#4F93AE" opacity="0.73"/>
<ellipse cx="742.8" cy="131.0" rx="4.3" ry="5.8" fill="#33607E" opacity="0.63"/>
<ellipse cx="519.8" cy="136.6" rx="2.6" ry="2.5" fill="#4E86A6" opacity="0.59"/>
<ellipse cx="173.3" cy="132.8" rx="4.7" ry="6.2" fill="#5C97B8" opacity="0.83"/>
<ellipse cx="303.2" cy="330.7" rx="4.6" ry="5.0" fill="#3E9E96" opacity="0.83"/>
<ellipse cx="48.6" cy="144.9" rx="3.0" ry="3.8" fill="#6AA8C4" opacity="0.68"/>
<ellipse cx="339.2" cy="398.0" rx="5.1" ry="6.9" fill="#3E6E8C" opacity="0.62"/>
<ellipse cx="255.9" cy="351.4" rx="2.8" ry="3.9" fill="#4F93AE" opacity="0.73"/>
<ellipse cx="727.2" cy="377.9" rx="2.6" ry="2.8" fill="#3E6E8C" opacity="0.47"/>
<ellipse cx="720.6" cy="199.4" rx="2.3" ry="1.8" fill="#33607E" opacity="0.56"/>
<ellipse cx="212.2" cy="251.8" rx="4.5" ry="5.8" fill="#7FB6CE" opacity="0.70"/>
<ellipse cx="612.0" cy="461.4" rx="3.3" ry="3.9" fill="#4E86A6" opacity="0.64"/>
<ellipse cx="765.1" cy="503.5" rx="3.1" ry="3.2" fill="#5C97B8" opacity="0.89"/>
<ellipse cx="578.8" cy="189.5" rx="4.0" ry="4.6" fill="#7FB6CE" opacity="0.61"/>
<ellipse cx="22.5" cy="113.4" rx="3.1" ry="3.6" fill="#2B5570" opacity="0.58"/>
<ellipse cx="118.7" cy="437.7" rx="2.3" ry="2.1" fill="#3E9E96" opacity="0.57"/>
<ellipse cx="124.3" cy="182.5" rx="3.9" ry="4.9" fill="#22415A" opacity="0.52"/>
<ellipse cx="637.3" cy="248.7" rx="2.1" ry="1.9" fill="#5C97B8" opacity="0.52"/>
<ellipse cx="577.1" cy="283.5" rx="2.4" ry="2.4" fill="#5C97B8" opacity="0.47"/>
<ellipse cx="228.9" cy="264.5" rx="2.2" ry="2.5" fill="#22415A" opacity="0.45"/>
<ellipse cx="595.7" cy="170.1" rx="3.7" ry="4.6" fill="#3E6E8C" opacity="0.91"/>
<ellipse cx="350.4" cy="299.3" rx="2.8" ry="2.4" fill="#5C97B8" opacity="0.61"/>
<ellipse cx="356.8" cy="308.7" rx="1.9" ry="2.4" fill="#4F93AE" opacity="0.73"/>
<ellipse cx="393.3" cy="287.4" rx="3.1" ry="4.0" fill="#6AA8C4" opacity="0.60"/>
<ellipse cx="342.4" cy="111.1" rx="4.8" ry="6.2" fill="#3E9E96" opacity="0.62"/>
<ellipse cx="419.0" cy="145.7" rx="2.6" ry="2.3" fill="#2B5570" opacity="0.91"/>
<ellipse cx="731.8" cy="426.6" rx="3.3" ry="3.4" fill="#2B5570" opacity="0.68"/>
<ellipse cx="361.2" cy="293.8" rx="3.1" ry="3.9" fill="#2B5570" opacity="0.68"/>
<ellipse cx="305.8" cy="441.0" rx="5.0" ry="5.9" fill="#22415A" opacity="0.55"/>
<ellipse cx="526.7" cy="197.0" rx="3.6" ry="4.1" fill="#4E86A6" opacity="0.87"/>
<ellipse cx="470.5" cy="110.1" rx="4.4" ry="4.0" fill="#5C97B8" opacity="0.90"/>
<ellipse cx="31.3" cy="193.1" rx="4.7" ry="6.2" fill="#3E6E8C" opacity="0.66"/>
<ellipse cx="328.0" cy="249.7" rx="3.4" ry="3.6" fill="#4F93AE" opacity="0.83"/>
<ellipse cx="253.2" cy="153.2" rx="2.4" ry="3.2" fill="#3E6E8C" opacity="0.78"/>
<ellipse cx="400.4" cy="424.2" rx="2.1" ry="2.7" fill="#3E9E96" opacity="0.67"/>
<ellipse cx="267.9" cy="173.0" rx="4.4" ry="5.9" fill="#4E86A6" opacity="0.59"/>
<ellipse cx="660.8" cy="115.7" rx="2.0" ry="2.4" fill="#5C97B8" opacity="0.82"/>
<ellipse cx="171.1" cy="227.3" rx="3.6" ry="4.4" fill="#7FB6CE" opacity="0.68"/>
<ellipse cx="435.8" cy="197.8" rx="2.4" ry="2.4" fill="#4E86A6" opacity="0.80"/>
<ellipse cx="515.2" cy="358.0" rx="4.2" ry="4.5" fill="#3E9E96" opacity="0.79"/>
<ellipse cx="142.2" cy="370.2" rx="4.7" ry="6.4" fill="#6AA8C4" opacity="0.66"/>
<ellipse cx="113.6" cy="201.5" rx="2.7" ry="2.8" fill="#7FB6CE" opacity="0.87"/>
<ellipse cx="501.1" cy="187.8" rx="2.0" ry="1.6" fill="#33607E" opacity="0.63"/>
<ellipse cx="469.0" cy="264.2" rx="3.3" ry="3.6" fill="#3E9E96" opacity="0.57"/>
<ellipse cx="404.3" cy="112.2" rx="4.1" ry="4.5" fill="#3E6E8C" opacity="0.87"/>
<ellipse cx="789.9" cy="118.1" rx="4.2" ry="3.7" fill="#22415A" opacity="0.61"/>
<ellipse cx="685.9" cy="257.7" rx="5.0" ry="5.7" fill="#3E9E96" opacity="0.63"/>
<ellipse cx="264.5" cy="246.6" rx="2.7" ry="2.8" fill="#22415A" opacity="0.48"/>
<ellipse cx="280.6" cy="358.5" rx="4.8" ry="5.2" fill="#6AA8C4" opacity="0.94"/>
<ellipse cx="685.4" cy="298.9" rx="3.4" ry="4.0" fill="#3E6E8C" opacity="0.81"/>
<ellipse cx="687.1" cy="192.2" rx="4.1" ry="3.4" fill="#22415A" opacity="0.75"/>
<ellipse cx="683.0" cy="306.0" rx="3.1" ry="2.7" fill="#4F93AE" opacity="0.55"/>
<ellipse cx="109.6" cy="305.7" rx="3.1" ry="3.7" fill="#7FB6CE" opacity="0.62"/>
<ellipse cx="772.0" cy="129.4" rx="4.1" ry="5.5" fill="#7FB6CE" opacity="0.73"/>
<ellipse cx="83.0" cy="132.1" rx="2.8" ry="2.7" fill="#6AA8C4" opacity="0.67"/>
<ellipse cx="225.0" cy="151.9" rx="3.9" ry="4.7" fill="#5C97B8" opacity="0.68"/>
<ellipse cx="264.6" cy="355.5" rx="4.1" ry="3.5" fill="#33607E" opacity="0.56"/>
<ellipse cx="663.2" cy="183.0" rx="2.9" ry="4.0" fill="#4F93AE" opacity="0.84"/>
<ellipse cx="586.9" cy="163.8" rx="4.5" ry="4.4" fill="#4E86A6" opacity="0.58"/>
<ellipse cx="186.3" cy="304.9" rx="3.8" ry="4.9" fill="#7FB6CE" opacity="0.89"/>
<ellipse cx="122.8" cy="116.0" rx="2.9" ry="3.3" fill="#7FB6CE" opacity="0.46"/>
<ellipse cx="17.9" cy="124.1" rx="3.5" ry="4.7" fill="#33607E" opacity="0.74"/>
<ellipse cx="773.9" cy="171.4" rx="3.4" ry="3.3" fill="#2B5570" opacity="0.87"/>
<ellipse cx="517.0" cy="228.5" rx="1.9" ry="2.3" fill="#22415A" opacity="0.73"/>
<ellipse cx="742.0" cy="248.4" rx="4.0" ry="3.8" fill="#4E86A6" opacity="0.69"/>
<ellipse cx="454.4" cy="323.8" rx="4.6" ry="4.6" fill="#5C97B8" opacity="0.73"/>
<ellipse cx="595.0" cy="188.2" rx="3.9" ry="4.8" fill="#6AA8C4" opacity="0.90"/>
<ellipse cx="638.5" cy="212.2" rx="2.6" ry="2.9" fill="#5C97B8" opacity="0.78"/>
<ellipse cx="733.1" cy="313.9" rx="4.1" ry="5.4" fill="#7FB6CE" opacity="0.87"/>
<ellipse cx="105.8" cy="517.5" rx="3.5" ry="3.1" fill="#3E6E8C" opacity="0.76"/>
<ellipse cx="32.6" cy="233.0" rx="3.5" ry="3.8" fill="#4F93AE" opacity="0.95"/>
<ellipse cx="696.9" cy="270.4" rx="4.7" ry="5.7" fill="#5C97B8" opacity="0.85"/>
<ellipse cx="727.9" cy="110.7" rx="2.0" ry="2.3" fill="#4F93AE" opacity="0.47"/>
<ellipse cx="727.1" cy="168.8" rx="4.3" ry="4.6" fill="#5C97B8" opacity="0.84"/>
<ellipse cx="757.6" cy="234.3" rx="4.0" ry="5.0" fill="#5C97B8" opacity="0.73"/>
<ellipse cx="399.2" cy="113.4" rx="4.0" ry="3.3" fill="#2B5570" opacity="0.47"/>
<ellipse cx="457.3" cy="254.9" rx="5.0" ry="5.4" fill="#3E6E8C" opacity="0.91"/>
<ellipse cx="206.3" cy="170.3" rx="2.5" ry="2.9" fill="#3E6E8C" opacity="0.51"/>
<ellipse cx="712.9" cy="110.4" rx="2.8" ry="2.6" fill="#3E9E96" opacity="0.49"/>
<ellipse cx="101.1" cy="133.9" rx="3.6" ry="3.4" fill="#4F93AE" opacity="0.89"/>
<ellipse cx="241.1" cy="258.4" rx="3.7" ry="4.9" fill="#33607E" opacity="0.83"/>
<ellipse cx="83.9" cy="140.9" rx="5.0" ry="4.2" fill="#7FB6CE" opacity="0.76"/>
<ellipse cx="534.4" cy="165.9" rx="2.3" ry="2.2" fill="#2B5570" opacity="0.62"/>
<ellipse cx="485.0" cy="113.1" rx="2.5" ry="2.4" fill="#7FB6CE" opacity="0.70"/>
<ellipse cx="181.3" cy="121.1" rx="4.0" ry="4.6" fill="#2B5570" opacity="0.88"/>
<ellipse cx="736.7" cy="378.1" rx="3.4" ry="4.1" fill="#3E9E96" opacity="0.78"/>
<ellipse cx="351.5" cy="180.2" rx="4.3" ry="5.7" fill="#2B5570" opacity="0.55"/>
<ellipse cx="470.6" cy="210.3" rx="3.7" ry="3.9" fill="#2B5570" opacity="0.68"/>
<ellipse cx="308.6" cy="453.2" rx="4.6" ry="4.4" fill="#4E86A6" opacity="0.52"/>
<ellipse cx="146.5" cy="281.2" rx="4.3" ry="5.3" fill="#5C97B8" opacity="0.57"/>
<ellipse cx="590.5" cy="227.8" rx="2.1" ry="2.1" fill="#22415A" opacity="0.57"/>
<ellipse cx="26.2" cy="116.6" rx="4.8" ry="5.9" fill="#4F93AE" opacity="0.48"/>
<ellipse cx="126.5" cy="133.3" rx="3.6" ry="4.2" fill="#4F93AE" opacity="0.52"/>
<ellipse cx="712.7" cy="381.8" rx="2.3" ry="2.8" fill="#7FB6CE" opacity="0.79"/>
<ellipse cx="310.1" cy="122.7" rx="3.3" ry="4.1" fill="#3E9E96" opacity="0.50"/>
<ellipse cx="554.8" cy="295.4" rx="3.7" ry="3.7" fill="#22415A" opacity="0.84"/>
<ellipse cx="141.2" cy="114.2" rx="2.9" ry="3.8" fill="#3E9E96" opacity="0.48"/>
<ellipse cx="504.7" cy="255.8" rx="3.6" ry="4.4" fill="#6AA8C4" opacity="0.62"/>
<ellipse cx="216.6" cy="231.6" rx="3.7" ry="3.7" fill="#22415A" opacity="0.71"/>
<ellipse cx="347.4" cy="227.3" rx="2.6" ry="3.3" fill="#3E6E8C" opacity="0.47"/>
<ellipse cx="559.4" cy="276.4" rx="3.4" ry="3.8" fill="#2B5570" opacity="0.69"/>
<ellipse cx="80.8" cy="237.7" rx="1.8" ry="2.2" fill="#3E6E8C" opacity="0.65"/>
<ellipse cx="213.6" cy="216.1" rx="4.5" ry="5.0" fill="#33607E" opacity="0.93"/>
<ellipse cx="399.8" cy="130.5" rx="4.5" ry="4.7" fill="#4F93AE" opacity="0.64"/>
<ellipse cx="613.2" cy="136.9" rx="3.4" ry="4.6" fill="#7FB6CE" opacity="0.47"/>
<ellipse cx="783.7" cy="433.5" rx="4.6" ry="5.2" fill="#3E6E8C" opacity="0.76"/>
<ellipse cx="661.5" cy="279.9" rx="3.5" ry="3.3" fill="#33607E" opacity="0.58"/>
<ellipse cx="563.7" cy="212.6" rx="2.0" ry="2.0" fill="#22415A" opacity="0.53"/>
<ellipse cx="688.8" cy="123.4" rx="2.3" ry="3.0" fill="#4F93AE" opacity="0.78"/>
<ellipse cx="642.4" cy="167.2" rx="2.3" ry="2.2" fill="#4F93AE" opacity="0.75"/>
<ellipse cx="6.9" cy="167.1" rx="4.3" ry="5.6" fill="#3E6E8C" opacity="0.67"/>
<ellipse cx="18.7" cy="154.1" rx="4.1" ry="4.2" fill="#3E6E8C" opacity="0.89"/>
<ellipse cx="635.7" cy="212.8" rx="2.2" ry="2.6" fill="#4F93AE" opacity="0.83"/>
<ellipse cx="690.9" cy="227.9" rx="4.4" ry="5.8" fill="#22415A" opacity="0.70"/>
<ellipse cx="706.6" cy="172.2" rx="2.2" ry="2.9" fill="#22415A" opacity="0.85"/>
<ellipse cx="702.2" cy="113.1" rx="2.4" ry="2.0" fill="#33607E" opacity="0.58"/>
<ellipse cx="501.3" cy="122.8" rx="3.0" ry="3.3" fill="#22415A" opacity="0.60"/>
<ellipse cx="537.9" cy="196.6" rx="3.5" ry="2.9" fill="#2B5570" opacity="0.60"/>
<ellipse cx="512.6" cy="179.5" rx="2.5" ry="2.9" fill="#6AA8C4" opacity="0.73"/>
<ellipse cx="576.7" cy="144.0" rx="5.1" ry="6.0" fill="#7FB6CE" opacity="0.67"/>
<ellipse cx="578.1" cy="150.3" rx="2.7" ry="3.0" fill="#22415A" opacity="0.64"/>
<ellipse cx="517.6" cy="163.0" rx="2.8" ry="3.0" fill="#33607E" opacity="0.71"/>
<ellipse cx="378.7" cy="237.0" rx="4.0" ry="4.6" fill="#4F93AE" opacity="0.80"/>
<ellipse cx="726.2" cy="113.6" rx="5.0" ry="4.9" fill="#33607E" opacity="0.77"/>
<ellipse cx="315.6" cy="417.0" rx="4.0" ry="5.2" fill="#3E9E96" opacity="0.79"/>
<ellipse cx="277.2" cy="138.5" rx="2.0" ry="2.7" fill="#2B5570" opacity="0.78"/>
<ellipse cx="585.8" cy="354.6" rx="3.7" ry="4.8" fill="#22415A" opacity="0.87"/>
<ellipse cx="165.4" cy="214.4" rx="1.8" ry="2.3" fill="#6AA8C4" opacity="0.49"/>
<ellipse cx="28.6" cy="391.2" rx="4.8" ry="6.4" fill="#6AA8C4" opacity="0.91"/>
<ellipse cx="677.8" cy="192.8" rx="5.0" ry="6.0" fill="#3E9E96" opacity="0.91"/>
<ellipse cx="782.3" cy="183.4" rx="5.0" ry="4.5" fill="#6AA8C4" opacity="0.84"/>
<ellipse cx="519.4" cy="303.5" rx="4.3" ry="3.8" fill="#7FB6CE" opacity="0.55"/>
<ellipse cx="514.1" cy="184.6" rx="4.3" ry="3.9" fill="#4F93AE" opacity="0.87"/>
<ellipse cx="161.2" cy="198.6" rx="3.2" ry="3.4" fill="#33607E" opacity="0.68"/>
<ellipse cx="776.5" cy="364.6" rx="3.6" ry="4.6" fill="#3E9E96" opacity="0.61"/>
<ellipse cx="644.3" cy="227.0" rx="3.3" ry="4.5" fill="#22415A" opacity="0.86"/>
<ellipse cx="742.9" cy="122.3" rx="4.7" ry="4.5" fill="#3E6E8C" opacity="0.73"/>
<ellipse cx="418.5" cy="320.3" rx="3.8" ry="4.1" fill="#4F93AE" opacity="0.73"/>
<ellipse cx="779.6" cy="138.7" rx="4.3" ry="4.1" fill="#3E9E96" opacity="0.69"/>
<ellipse cx="368.6" cy="117.2" rx="4.7" ry="5.3" fill="#2B5570" opacity="0.78"/>
<ellipse cx="102.2" cy="170.6" rx="4.2" ry="5.4" fill="#7FB6CE" opacity="0.57"/>
<ellipse cx="145.1" cy="165.8" rx="4.2" ry="3.5" fill="#6AA8C4" opacity="0.62"/>
<ellipse cx="577.0" cy="216.9" rx="4.4" ry="4.6" fill="#4E86A6" opacity="0.75"/>
<ellipse cx="425.1" cy="381.7" rx="5.1" ry="4.4" fill="#3E9E96" opacity="0.47"/>
<ellipse cx="733.4" cy="437.1" rx="2.3" ry="3.2" fill="#4E86A6" opacity="0.51"/>
<ellipse cx="398.7" cy="205.7" rx="4.0" ry="4.5" fill="#7FB6CE" opacity="0.48"/>
<ellipse cx="67.7" cy="149.4" rx="3.2" ry="4.4" fill="#4F93AE" opacity="0.66"/>
<ellipse cx="159.7" cy="122.6" rx="2.5" ry="2.2" fill="#2B5570" opacity="0.81"/>
<ellipse cx="660.9" cy="544.0" rx="3.7" ry="5.0" fill="#6AA8C4" opacity="0.55"/>
<ellipse cx="725.3" cy="278.5" rx="2.1" ry="2.1" fill="#6AA8C4" opacity="0.81"/>
<ellipse cx="106.0" cy="215.2" rx="4.0" ry="3.4" fill="#33607E" opacity="0.93"/>
<ellipse cx="120.3" cy="353.3" rx="4.2" ry="5.1" fill="#4E86A6" opacity="0.52"/>
<ellipse cx="406.4" cy="365.8" rx="2.2" ry="2.3" fill="#4F93AE" opacity="0.62"/>
<ellipse cx="362.8" cy="206.6" rx="4.6" ry="4.7" fill="#22415A" opacity="0.51"/>
<ellipse cx="38.9" cy="146.9" rx="4.5" ry="4.0" fill="#7FB6CE" opacity="0.50"/>
<ellipse cx="382.6" cy="284.6" rx="3.3" ry="4.0" fill="#3E9E96" opacity="0.79"/>
<ellipse cx="548.9" cy="242.6" rx="3.8" ry="3.5" fill="#6AA8C4" opacity="0.78"/>
<ellipse cx="408.4" cy="302.4" rx="1.8" ry="2.2" fill="#4F93AE" opacity="0.51"/>
<ellipse cx="733.8" cy="378.7" rx="4.7" ry="4.6" fill="#4F93AE" opacity="0.77"/>
<ellipse cx="419.5" cy="135.6" rx="3.0" ry="3.6" fill="#5C97B8" opacity="0.77"/>
<ellipse cx="184.0" cy="209.4" rx="2.6" ry="2.2" fill="#4E86A6" opacity="0.77"/>
<ellipse cx="784.6" cy="179.6" rx="5.0" ry="4.9" fill="#7FB6CE" opacity="0.60"/>
<ellipse cx="450.3" cy="436.0" rx="1.9" ry="1.9" fill="#2B5570" opacity="0.93"/>
<ellipse cx="349.3" cy="149.3" rx="3.2" ry="3.5" fill="#3E6E8C" opacity="0.95"/>
<ellipse cx="8.5" cy="177.5" rx="5.0" ry="6.1" fill="#6AA8C4" opacity="0.78"/>
<ellipse cx="349.1" cy="228.2" rx="2.0" ry="2.2" fill="#4E86A6" opacity="0.69"/>
<ellipse cx="567.3" cy="147.1" rx="2.6" ry="3.0" fill="#33607E" opacity="0.81"/>
<ellipse cx="454.1" cy="207.7" rx="3.2" ry="3.0" fill="#3E6E8C" opacity="0.80"/>
<ellipse cx="266.4" cy="391.9" rx="4.1" ry="5.4" fill="#4E86A6" opacity="0.49"/>
<ellipse cx="11.3" cy="163.0" rx="3.0" ry="3.6" fill="#22415A" opacity="0.65"/>
<ellipse cx="477.3" cy="185.4" rx="2.6" ry="2.3" fill="#4E86A6" opacity="0.61"/>
<ellipse cx="498.5" cy="189.4" rx="4.1" ry="5.1" fill="#3E6E8C" opacity="0.75"/>
<ellipse cx="792.3" cy="110.9" rx="4.2" ry="3.7" fill="#2B5570" opacity="0.59"/>
<ellipse cx="515.7" cy="111.3" rx="1.8" ry="2.1" fill="#7FB6CE" opacity="0.52"/>
<ellipse cx="690.8" cy="138.6" rx="4.5" ry="5.3" fill="#3E6E8C" opacity="0.72"/>
<ellipse cx="92.5" cy="302.0" rx="3.0" ry="3.4" fill="#3E6E8C" opacity="0.83"/>
<ellipse cx="185.7" cy="359.9" rx="4.8" ry="4.6" fill="#7FB6CE" opacity="0.63"/>
<ellipse cx="796.2" cy="231.1" rx="3.9" ry="5.3" fill="#22415A" opacity="0.89"/>
<ellipse cx="372.0" cy="260.4" rx="3.8" ry="4.8" fill="#2B5570" opacity="0.55"/>
<ellipse cx="172.5" cy="150.1" rx="4.5" ry="5.9" fill="#22415A" opacity="0.61"/>
<ellipse cx="618.9" cy="449.2" rx="1.9" ry="2.6" fill="#33607E" opacity="0.46"/>
<ellipse cx="332.1" cy="212.6" rx="4.5" ry="4.4" fill="#4E86A6" opacity="0.56"/>
<ellipse cx="160.5" cy="172.3" rx="3.0" ry="2.7" fill="#33607E" opacity="0.72"/>
<ellipse cx="166.0" cy="183.2" rx="3.6" ry="2.9" fill="#33607E" opacity="0.71"/>
<ellipse cx="123.6" cy="117.8" rx="5.1" ry="4.7" fill="#4F93AE" opacity="0.94"/>
<ellipse cx="310.8" cy="309.3" rx="4.3" ry="5.6" fill="#4E86A6" opacity="0.57"/>
<ellipse cx="552.1" cy="171.1" rx="1.8" ry="2.3" fill="#4F93AE" opacity="0.48"/>
<ellipse cx="718.0" cy="144.4" rx="4.8" ry="5.2" fill="#4E86A6" opacity="0.93"/>
<ellipse cx="397.3" cy="117.8" rx="1.8" ry="2.2" fill="#4E86A6" opacity="0.89"/>
<ellipse cx="477.8" cy="247.4" rx="1.7" ry="1.5" fill="#2B5570" opacity="0.63"/>
<ellipse cx="256.7" cy="160.2" rx="2.8" ry="3.3" fill="#6AA8C4" opacity="0.50"/>
<ellipse cx="398.5" cy="356.4" rx="4.7" ry="3.9" fill="#5C97B8" opacity="0.55"/>
<ellipse cx="786.4" cy="295.6" rx="5.0" ry="5.2" fill="#6AA8C4" opacity="0.60"/>
<ellipse cx="620.7" cy="191.6" rx="4.5" ry="5.7" fill="#22415A" opacity="0.55"/>
<ellipse cx="704.1" cy="111.3" rx="4.7" ry="6.1" fill="#33607E" opacity="0.71"/>
<ellipse cx="108.2" cy="140.5" rx="4.4" ry="3.8" fill="#2B5570" opacity="0.76"/>
<ellipse cx="46.8" cy="179.9" rx="3.0" ry="3.9" fill="#2B5570" opacity="0.74"/>
<ellipse cx="684.5" cy="127.4" rx="5.1" ry="6.9" fill="#4E86A6" opacity="0.63"/>
<ellipse cx="433.3" cy="113.6" rx="5.0" ry="5.8" fill="#5C97B8" opacity="0.74"/>
<ellipse cx="11.4" cy="208.5" rx="1.8" ry="2.2" fill="#4E86A6" opacity="0.84"/>
<ellipse cx="154.9" cy="344.2" rx="4.9" ry="6.4" fill="#6AA8C4" opacity="0.59"/>
<ellipse cx="465.0" cy="187.9" rx="2.3" ry="3.2" fill="#2B5570" opacity="0.65"/>
<ellipse cx="231.9" cy="115.2" rx="2.8" ry="2.3" fill="#2B5570" opacity="0.77"/>
<ellipse cx="343.8" cy="515.8" rx="2.7" ry="2.6" fill="#5C97B8" opacity="0.62"/>
<ellipse cx="446.0" cy="154.8" rx="1.9" ry="1.8" fill="#7FB6CE" opacity="0.85"/>
<ellipse cx="437.7" cy="279.9" rx="4.9" ry="5.7" fill="#33607E" opacity="0.83"/>
<ellipse cx="467.5" cy="118.3" rx="1.9" ry="1.7" fill="#3E6E8C" opacity="0.49"/>
<ellipse cx="539.0" cy="345.2" rx="4.8" ry="5.0" fill="#2B5570" opacity="0.88"/>
<ellipse cx="23.8" cy="116.9" rx="2.6" ry="2.6" fill="#22415A" opacity="0.77"/>
<ellipse cx="687.2" cy="255.0" rx="4.9" ry="6.3" fill="#6AA8C4" opacity="0.60"/>
<ellipse cx="369.5" cy="290.4" rx="4.9" ry="6.1" fill="#33607E" opacity="0.58"/>
<ellipse cx="218.6" cy="166.2" rx="4.1" ry="4.9" fill="#3E6E8C" opacity="0.51"/>
<ellipse cx="365.8" cy="477.7" rx="3.6" ry="3.0" fill="#3E6E8C" opacity="0.71"/>
<ellipse cx="382.4" cy="222.6" rx="2.5" ry="2.0" fill="#4F93AE" opacity="0.58"/>
<ellipse cx="228.8" cy="204.2" rx="3.5" ry="3.2" fill="#4F93AE" opacity="0.89"/>
<ellipse cx="688.4" cy="271.3" rx="2.5" ry="2.1" fill="#4F93AE" opacity="0.76"/>
<ellipse cx="459.5" cy="130.3" rx="2.4" ry="2.2" fill="#33607E" opacity="0.56"/>
<ellipse cx="714.2" cy="409.7" rx="5.0" ry="6.8" fill="#6AA8C4" opacity="0.69"/>
<ellipse cx="653.7" cy="128.1" rx="4.2" ry="4.9" fill="#5C97B8" opacity="0.77"/>
<ellipse cx="687.7" cy="138.0" rx="3.1" ry="4.0" fill="#3E9E96" opacity="0.64"/>
<ellipse cx="257.8" cy="201.5" rx="2.8" ry="2.6" fill="#33607E" opacity="0.66"/>
<ellipse cx="551.8" cy="121.3" rx="4.3" ry="5.5" fill="#4F93AE" opacity="0.62"/>
<ellipse cx="738.2" cy="199.9" rx="5.0" ry="6.7" fill="#4E86A6" opacity="0.53"/>
<ellipse cx="667.7" cy="300.3" rx="4.0" ry="5.3" fill="#4E86A6" opacity="0.87"/>
<ellipse cx="667.3" cy="168.1" rx="3.1" ry="3.7" fill="#5C97B8" opacity="0.60"/>
<ellipse cx="38.7" cy="501.8" rx="2.1" ry="2.9" fill="#5C97B8" opacity="0.79"/>
<ellipse cx="388.2" cy="142.8" rx="4.5" ry="4.9" fill="#2B5570" opacity="0.57"/>
<ellipse cx="129.1" cy="239.0" rx="2.1" ry="2.5" fill="#33607E" opacity="0.71"/>
<ellipse cx="291.9" cy="316.7" rx="3.5" ry="3.0" fill="#3E6E8C" opacity="0.93"/>
<ellipse cx="36.3" cy="186.1" rx="3.7" ry="4.8" fill="#3E9E96" opacity="0.83"/>
<ellipse cx="214.9" cy="116.0" rx="1.9" ry="2.5" fill="#33607E" opacity="0.53"/>
<ellipse cx="596.6" cy="202.4" rx="5.1" ry="6.2" fill="#3E6E8C" opacity="0.65"/>
<ellipse cx="604.0" cy="292.6" rx="3.6" ry="4.5" fill="#7FB6CE" opacity="0.57"/>
<ellipse cx="109.7" cy="280.3" rx="4.2" ry="4.7" fill="#5C97B8" opacity="0.74"/>
<ellipse cx="439.3" cy="116.3" rx="2.2" ry="2.8" fill="#6AA8C4" opacity="0.60"/>
<ellipse cx="78.5" cy="157.2" rx="4.2" ry="5.1" fill="#5C97B8" opacity="0.76"/>
<ellipse cx="679.0" cy="115.4" rx="3.3" ry="2.9" fill="#5C97B8" opacity="0.86"/>
<ellipse cx="696.9" cy="374.1" rx="5.1" ry="6.1" fill="#6AA8C4" opacity="0.84"/>
<ellipse cx="632.7" cy="280.7" rx="1.7" ry="2.0" fill="#4F93AE" opacity="0.47"/>
<ellipse cx="350.1" cy="116.5" rx="4.0" ry="3.8" fill="#22415A" opacity="0.89"/>
<ellipse cx="498.1" cy="344.4" rx="4.0" ry="4.6" fill="#33607E" opacity="0.65"/>
<ellipse cx="459.0" cy="385.1" rx="1.8" ry="1.8" fill="#22415A" opacity="0.69"/>
<ellipse cx="104.9" cy="128.4" rx="2.4" ry="2.5" fill="#5C97B8" opacity="0.80"/>
<ellipse cx="330.9" cy="114.4" rx="2.0" ry="2.5" fill="#33607E" opacity="0.62"/>
<ellipse cx="452.5" cy="385.4" rx="4.2" ry="4.1" fill="#22415A" opacity="0.55"/>
<ellipse cx="436.1" cy="363.4" rx="2.7" ry="3.7" fill="#6AA8C4" opacity="0.46"/>
<ellipse cx="663.2" cy="215.6" rx="3.6" ry="4.9" fill="#33607E" opacity="0.85"/>
<ellipse cx="102.8" cy="139.1" rx="4.1" ry="3.9" fill="#5C97B8" opacity="0.69"/>
<ellipse cx="16.3" cy="181.6" rx="3.4" ry="4.1" fill="#22415A" opacity="0.54"/>
<ellipse cx="560.9" cy="176.7" rx="5.0" ry="5.0" fill="#4F93AE" opacity="0.88"/>
<ellipse cx="691.0" cy="375.5" rx="1.7" ry="2.2" fill="#3E9E96" opacity="0.62"/>
<ellipse cx="293.0" cy="112.5" rx="1.8" ry="2.5" fill="#4E86A6" opacity="0.69"/>
<ellipse cx="775.9" cy="146.9" rx="3.5" ry="3.1" fill="#22415A" opacity="0.83"/>
<ellipse cx="621.1" cy="286.6" rx="4.2" ry="3.6" fill="#4E86A6" opacity="0.46"/>
<ellipse cx="288.0" cy="424.6" rx="3.7" ry="4.3" fill="#4E86A6" opacity="0.64"/>
<ellipse cx="189.5" cy="240.9" rx="3.9" ry="4.1" fill="#3E6E8C" opacity="0.94"/>
<ellipse cx="89.9" cy="345.3" rx="3.0" ry="3.6" fill="#3E6E8C" opacity="0.82"/>
<ellipse cx="430.2" cy="253.4" rx="4.4" ry="3.6" fill="#7FB6CE" opacity="0.73"/>
<ellipse cx="590.4" cy="347.8" rx="4.0" ry="4.2" fill="#3E6E8C" opacity="0.88"/>
<ellipse cx="472.3" cy="149.5" rx="2.7" ry="3.7" fill="#4F93AE" opacity="0.66"/>
<ellipse cx="202.1" cy="344.3" rx="3.2" ry="3.5" fill="#3E9E96" opacity="0.55"/>
<ellipse cx="385.2" cy="120.7" rx="2.9" ry="3.8" fill="#3E9E96" opacity="0.56"/>
<ellipse cx="103.4" cy="290.7" rx="4.7" ry="5.8" fill="#4F93AE" opacity="0.46"/>
<ellipse cx="560.9" cy="312.1" rx="3.6" ry="3.3" fill="#3E9E96" opacity="0.91"/>
<ellipse cx="392.4" cy="124.4" rx="5.0" ry="5.9" fill="#22415A" opacity="0.82"/>
<ellipse cx="23.6" cy="136.6" rx="2.4" ry="1.9" fill="#5C97B8" opacity="0.88"/>
<ellipse cx="85.1" cy="116.5" rx="2.6" ry="3.3" fill="#3E6E8C" opacity="0.72"/>
<ellipse cx="555.8" cy="113.8" rx="2.1" ry="1.8" fill="#4E86A6" opacity="0.82"/>
<ellipse cx="733.2" cy="181.3" rx="2.2" ry="2.8" fill="#22415A" opacity="0.56"/>
<ellipse cx="656.6" cy="197.5" rx="3.9" ry="4.8" fill="#3E6E8C" opacity="0.74"/>
<ellipse cx="448.9" cy="219.8" rx="4.0" ry="5.2" fill="#5C97B8" opacity="0.94"/>
<ellipse cx="668.7" cy="127.4" rx="3.0" ry="3.0" fill="#5C97B8" opacity="0.92"/>
<ellipse cx="628.4" cy="355.6" rx="1.9" ry="2.6" fill="#5C97B8" opacity="0.89"/>
<ellipse cx="631.8" cy="207.4" rx="4.9" ry="6.2" fill="#33607E" opacity="0.49"/>
<ellipse cx="150.4" cy="161.2" rx="4.9" ry="5.2" fill="#4F93AE" opacity="0.60"/>
<ellipse cx="764.7" cy="233.9" rx="2.7" ry="3.5" fill="#4E86A6" opacity="0.66"/>
<ellipse cx="331.5" cy="258.4" rx="4.7" ry="4.5" fill="#4E86A6" opacity="0.56"/>
<ellipse cx="247.7" cy="304.0" rx="3.5" ry="3.8" fill="#7FB6CE" opacity="0.51"/>
<ellipse cx="392.3" cy="126.5" rx="2.9" ry="2.5" fill="#7FB6CE" opacity="0.77"/>
<ellipse cx="729.5" cy="115.6" rx="3.1" ry="3.6" fill="#5C97B8" opacity="0.56"/>
<ellipse cx="138.1" cy="126.0" rx="4.1" ry="5.8" fill="#5C97B8" opacity="0.45"/>
<ellipse cx="785.5" cy="407.0" rx="3.5" ry="3.8" fill="#3E9E96" opacity="0.69"/>
<ellipse cx="166.3" cy="271.1" rx="2.8" ry="3.6" fill="#3E9E96" opacity="0.82"/>
<ellipse cx="683.2" cy="180.3" rx="1.9" ry="2.5" fill="#7FB6CE" opacity="0.89"/>
<ellipse cx="354.0" cy="147.4" rx="5.0" ry="5.3" fill="#6AA8C4" opacity="0.80"/>
<ellipse cx="610.8" cy="122.8" rx="4.1" ry="3.7" fill="#4F93AE" opacity="0.78"/>
<ellipse cx="767.5" cy="119.7" rx="4.6" ry="4.8" fill="#2B5570" opacity="0.89"/>
<ellipse cx="616.3" cy="225.8" rx="4.3" ry="4.6" fill="#3E6E8C" opacity="0.49"/>
<ellipse cx="141.8" cy="150.7" rx="4.5" ry="4.4" fill="#7FB6CE" opacity="0.65"/>
<ellipse cx="465.6" cy="353.7" rx="2.6" ry="2.6" fill="#22415A" opacity="0.64"/>
<ellipse cx="541.1" cy="119.1" rx="3.4" ry="4.6" fill="#5C97B8" opacity="0.86"/>
<ellipse cx="158.8" cy="122.9" rx="3.4" ry="4.0" fill="#5C97B8" opacity="0.45"/>
<ellipse cx="106.9" cy="252.3" rx="2.8" ry="2.6" fill="#22415A" opacity="0.55"/>
<ellipse cx="27.3" cy="214.4" rx="2.9" ry="3.7" fill="#4E86A6" opacity="0.71"/>
<ellipse cx="629.7" cy="196.1" rx="2.6" ry="2.3" fill="#4F93AE" opacity="0.94"/>
<ellipse cx="326.6" cy="175.0" rx="3.7" ry="5.2" fill="#3E9E96" opacity="0.84"/>
<ellipse cx="70.6" cy="172.9" rx="4.9" ry="4.1" fill="#33607E" opacity="0.89"/>
<ellipse cx="498.3" cy="457.1" rx="2.2" ry="3.1" fill="#3E9E96" opacity="0.91"/>
<ellipse cx="333.3" cy="134.5" rx="3.8" ry="4.8" fill="#6AA8C4" opacity="0.86"/>
<ellipse cx="689.5" cy="172.5" rx="2.3" ry="3.1" fill="#3E6E8C" opacity="0.87"/>
<ellipse cx="581.5" cy="230.0" rx="4.0" ry="5.0" fill="#22415A" opacity="0.56"/>
<ellipse cx="693.1" cy="118.9" rx="4.1" ry="3.8" fill="#3E6E8C" opacity="0.46"/>
<ellipse cx="146.2" cy="115.6" rx="3.7" ry="3.7" fill="#3E6E8C" opacity="0.69"/>
<ellipse cx="359.3" cy="486.4" rx="2.3" ry="2.0" fill="#3E9E96" opacity="0.46"/>
<ellipse cx="280.7" cy="127.0" rx="4.7" ry="5.7" fill="#4E86A6" opacity="0.47"/>
<ellipse cx="6.8" cy="130.6" rx="1.9" ry="1.6" fill="#3E6E8C" opacity="0.65"/>
<ellipse cx="626.1" cy="191.4" rx="4.0" ry="4.5" fill="#2B5570" opacity="0.54"/>
<ellipse cx="281.2" cy="161.9" rx="2.0" ry="2.1" fill="#4F93AE" opacity="0.71"/>
<ellipse cx="299.2" cy="226.1" rx="3.4" ry="3.3" fill="#5C97B8" opacity="0.91"/>
<ellipse cx="360.4" cy="155.0" rx="2.6" ry="3.2" fill="#33607E" opacity="0.90"/>
<ellipse cx="190.0" cy="292.5" rx="4.5" ry="6.1" fill="#22415A" opacity="0.91"/>
<ellipse cx="66.3" cy="265.7" rx="4.6" ry="6.3" fill="#4E86A6" opacity="0.64"/>
<ellipse cx="330.4" cy="359.1" rx="2.7" ry="2.3" fill="#4F93AE" opacity="0.56"/>
<ellipse cx="615.4" cy="292.6" rx="4.4" ry="5.8" fill="#7FB6CE" opacity="0.84"/>
<ellipse cx="206.4" cy="264.4" rx="3.1" ry="4.3" fill="#3E6E8C" opacity="0.69"/>
<ellipse cx="697.9" cy="136.4" rx="4.8" ry="5.3" fill="#7FB6CE" opacity="0.66"/>
<ellipse cx="312.1" cy="197.3" rx="2.5" ry="3.1" fill="#6AA8C4" opacity="0.64"/>
<ellipse cx="678.3" cy="110.4" rx="4.5" ry="4.0" fill="#4F93AE" opacity="0.82"/>
<ellipse cx="312.0" cy="142.3" rx="4.9" ry="6.2" fill="#5C97B8" opacity="0.47"/>
<ellipse cx="672.3" cy="232.8" rx="2.3" ry="2.9" fill="#2B5570" opacity="0.79"/>
<ellipse cx="767.7" cy="246.7" rx="3.8" ry="3.1" fill="#3E9E96" opacity="0.67"/>
<ellipse cx="528.9" cy="535.1" rx="4.9" ry="6.1" fill="#3E6E8C" opacity="0.58"/>
<ellipse cx="196.5" cy="115.1" rx="2.1" ry="1.9" fill="#6AA8C4" opacity="0.60"/>
<ellipse cx="530.7" cy="187.1" rx="2.1" ry="2.5" fill="#22415A" opacity="0.57"/>
<ellipse cx="652.0" cy="115.9" rx="2.1" ry="2.9" fill="#2B5570" opacity="0.69"/>
<ellipse cx="667.0" cy="110.4" rx="4.9" ry="4.9" fill="#5C97B8" opacity="0.74"/>
<ellipse cx="345.8" cy="116.2" rx="4.2" ry="3.4" fill="#22415A" opacity="0.74"/>
<ellipse cx="496.9" cy="131.8" rx="2.3" ry="3.1" fill="#7FB6CE" opacity="0.88"/>
<ellipse cx="149.0" cy="534.3" rx="4.4" ry="3.6" fill="#33607E" opacity="0.80"/>
<ellipse cx="315.0" cy="110.0" rx="3.0" ry="4.1" fill="#33607E" opacity="0.86"/>
<ellipse cx="691.0" cy="239.9" rx="2.5" ry="2.9" fill="#4E86A6" opacity="0.51"/>
<ellipse cx="315.5" cy="157.0" rx="4.7" ry="4.4" fill="#4E86A6" opacity="0.52"/>
<ellipse cx="574.4" cy="111.3" rx="4.9" ry="4.1" fill="#2B5570" opacity="0.61"/>
<ellipse cx="339.5" cy="121.2" rx="3.0" ry="3.4" fill="#4E86A6" opacity="0.55"/>
<ellipse cx="626.8" cy="118.1" rx="3.6" ry="3.7" fill="#2B5570" opacity="0.51"/>
<ellipse cx="536.7" cy="232.5" rx="4.1" ry="3.4" fill="#4E86A6" opacity="0.86"/>
<ellipse cx="375.0" cy="393.1" rx="2.1" ry="2.3" fill="#3E9E96" opacity="0.62"/>
<ellipse cx="483.4" cy="157.5" rx="2.3" ry="2.1" fill="#6AA8C4" opacity="0.81"/>
<ellipse cx="47.1" cy="157.1" rx="4.6" ry="5.0" fill="#3E9E96" opacity="0.51"/>
<ellipse cx="232.2" cy="485.2" rx="3.0" ry="3.6" fill="#2B5570" opacity="0.49"/>
<ellipse cx="364.1" cy="232.0" rx="4.8" ry="5.9" fill="#5C97B8" opacity="0.63"/>
<ellipse cx="523.5" cy="158.4" rx="3.5" ry="4.0" fill="#7FB6CE" opacity="0.54"/>
<ellipse cx="536.7" cy="121.8" rx="2.1" ry="2.0" fill="#33607E" opacity="0.83"/>
<ellipse cx="628.5" cy="266.3" rx="4.5" ry="6.2" fill="#4E86A6" opacity="0.65"/>
<ellipse cx="112.0" cy="132.0" rx="5.0" ry="6.3" fill="#3E6E8C" opacity="0.72"/>
<ellipse cx="620.0" cy="266.9" rx="1.9" ry="1.8" fill="#4E86A6" opacity="0.65"/>
<ellipse cx="48.5" cy="203.1" rx="2.9" ry="2.8" fill="#33607E" opacity="0.57"/>
<ellipse cx="423.2" cy="339.0" rx="2.0" ry="2.7" fill="#4E86A6" opacity="0.67"/>
<ellipse cx="5.5" cy="116.4" rx="4.1" ry="4.5" fill="#4F93AE" opacity="0.91"/>
<ellipse cx="735.5" cy="286.0" rx="3.5" ry="3.1" fill="#33607E" opacity="0.87"/>
<ellipse cx="359.7" cy="268.0" rx="5.1" ry="5.5" fill="#7FB6CE" opacity="0.83"/>
</g>
<rect width="800" height="600" fill="url(#fade)"/>
</svg>
