<svg width="431" height="230" viewBox="0 0 431 230" fill="none" xmlns="http://www.w3.org/2000/svg">
<g clip-path="url(#clip0_26_20605)">
<ellipse opacity="0.15" cx="188.447" cy="114.267" rx="129.203" ry="149.014" fill="#E2E7FE"/>
<ellipse opacity="0.4" cx="246.495" cy="114.267" rx="129.203" ry="149.014" fill="#C4D1FD"/>
<path d="M581.673 93.825C579.006 161.382 599.066 203.999 546.096 240.679C493.125 277.36 364.765 263.355 317.65 263.355C246.293 263.355 188.447 196.64 188.447 114.341C188.447 32.0432 246.293 -34.6727 317.65 -34.6727C365.282 -34.6727 482.82 -48.1251 552.649 -9.83698C587.431 9.23388 584.34 26.2681 581.673 93.825Z" fill="#A5B0FF"/>
</g>
<path d="M340.117 84.4319C359.346 84.4319 376.495 95.2385 384.866 112.336C381.873 118.526 377.662 123.853 372.639 128.166L379.792 135.319C386.845 129.079 392.426 121.266 395.926 112.336C387.149 90.0635 365.485 74.2849 340.117 74.2849C333.674 74.2849 327.484 75.2996 321.65 77.1768L330.021 85.5481C333.319 84.8885 336.667 84.4319 340.117 84.4319ZM334.689 90.2158L345.191 100.718C348.083 101.986 350.417 104.32 351.685 107.212L362.187 117.714C362.593 115.989 362.898 114.163 362.898 112.286C362.948 99.7033 352.7 89.5055 340.117 89.5055C338.24 89.5055 336.464 89.7591 334.689 90.2158ZM289.433 73.6253L303.03 87.2224C294.76 93.7165 288.215 102.341 284.309 112.336C293.086 134.609 314.75 150.388 340.117 150.388C347.829 150.388 355.237 148.916 362.035 146.228L379.387 163.579L386.54 156.425L296.587 66.4209L289.433 73.6253ZM327.484 111.677L340.726 124.919C340.523 124.969 340.32 125.02 340.117 125.02C333.116 125.02 327.434 119.338 327.434 112.336C327.434 112.083 327.484 111.93 327.484 111.677ZM310.234 94.4268L319.113 103.305C317.946 106.096 317.287 109.14 317.287 112.336C317.287 124.919 327.535 135.167 340.117 135.167C343.314 135.167 346.358 134.508 349.098 133.341L354.07 138.313C349.605 139.53 344.937 140.241 340.117 140.241C320.889 140.241 303.74 129.434 295.369 112.336C298.92 105.081 304.095 99.0944 310.234 94.4268Z" fill="white"/>
<defs>
<clipPath id="clip0_26_20605">
<path d="M59.0322 0H406C419.255 0 430 10.7452 430 24V206C430 219.255 419.255 230 406 230H59.0322V0Z" fill="white"/>
</clipPath>
</defs>
</svg>
